<?xml version="1.0" encoding="UTF-8"?>
<svg id="Camada_1" data-name="Camada 1" xmlns="http://www.w3.org/2000/svg" viewBox="0 0 1200 300">
  <defs>
    <style>
      .cls-1 {
        fill: #9f32ed;
      }

      .cls-2 {
        fill: #f4f4f4;
      }
    </style>
  </defs>
  <path class="cls-1" d="M415.88,166.06c-2.84,11.84-13.34,24.59-31.5,38.25-17.5,13-31.75,19.5-42.75,19.5h-14.25l-6-1c-8.34-1.5-17.5-5.91-27.5-13.25-23.34-17.83-35-38-35-60.5,0-6.5,2.16-15,6.5-25.5,4.5-10.5,9.08-18.25,13.75-23.25,13.16-14.66,31.33-25.66,54.5-33,7.5-2.33,12.41-3.5,14.75-3.5h12c5,0,11,1.59,18,4.75l11.25,5c1,0,2.08-.88,3.25-2.62,1.16-1.75,2.08-2.62,2.75-2.62,1.16.34,2.33.88,3.5,1.62,1.16.75,1.75,1.71,1.75,2.88l-12,16.25c-8,10.84-12,16.92-12,18.25,0,1,1.5,1.84,4.5,2.5,9.16,2.17,16.41,5.5,21.75,10,3.16,2.84,6.16,6.42,9,10.75,3.5,5.34,5.25,9.5,5.25,12.5v16.25l-1.5,6.75ZM392.63,162.56c0-5.5-3.17-12.58-9.5-21.25-5.5-7.5-10.34-11.83-14.5-13l-2,3-1,2.75h-5.25l-2-1.75v-5.75l2-2.25v-2.25l-5-1.5-3-.75h-7.5l-4.75,3.75c-2.34,1.84-3.5,4.42-3.5,7.75,0,2.84,1.33,5.34,4,7.5l1.75,1.5c.16-.16.79-.66,1.88-1.5,1.08-.83,2.79-1.41,5.12-1.75,2,0,3,1.5,3,4.5,0,1.5-1.17,3.42-3.5,5.75-4.67,3.67-8,7-10,10l-9,13.25c-1.67,1.84-3.17,2.92-4.5,3.25l-3.25-.5-.75-1.25.75-1.75c-.5-.5-.75-1-.75-1.5l1-3.25c-1.34-.83-3.17-3.25-5.5-7.25l-4.25-7v-12c3.33-7,6.08-11.91,8.25-14.75,4.33-5.83,10.25-10.16,17.75-13,1.83-.66,4.25-1.33,7.25-2,3-.66,6.66-1.33,11-2,6.5-1,10.66-2.41,12.5-4.25v-3l-16-6.5c-11-4.5-19.34-6.75-25-6.75h-7.5c-9.17,0-18.42,5.17-27.75,15.5-9.34,10.34-14,20.09-14,29.25,0,15.17,9.08,30.75,27.25,46.75,17.16,15.17,33.16,22.75,48,22.75h9c6,0,12.33-3.33,19-10s10.25-13.16,10.25-19v-9.75Z"/>
  <g>
    <path class="cls-2" d="M514.88,215.31c-.84.67-2.12,1.5-3.88,2.5s-3.96,2.34-6.62,4c-.17.17-.42.34-.75.5-.34.17-.75.42-1.25.75-3.17,0-6.09-1.75-8.75-5.25l-9-11.5-13.5,8.75c-8.5,5.5-13.42,8.42-14.75,8.75-7.67,0-15.59-3.91-23.75-11.75-9.67-9.5-14.5-20.91-14.5-34.25,0-12,6.33-24.83,19-38.5,13.66-14.66,27.5-22,41.5-22,2,0,6.25,2,12.75,6,6.33,3.84,10.75,5.92,13.25,6.25,3.66,0,8.5-2.5,14.5-7.5h3v3l-10,13.75c-3,4.34-4.5,9.75-4.5,16.25v34.25c0,6.67,3,11.34,9,14,5.83,2,8.91,3.5,9.25,4.5l-11,7.5ZM491.63,148.56c-.84,0-1.75.17-2.75.5l-2,.5c-3.84,0-8.84-2.5-15-7.5-5.84-5.16-10-7.75-12.5-7.75-6,0-10.59,2.84-13.75,8.5-3,4.84-4.5,10.34-4.5,16.5l-.75,2.75-.75,3.5c0,7,3.66,15.34,11,25,5.83,7.34,12.33,11,19.5,11,3.33,0,6.25-.58,8.75-1.75l5-2v-30.5l3.25-4.75,8.25-15.25v2.25c-.67-.66-1.92-1-3.75-1Z"/>
    <path class="cls-2" d="M573.63,71.81c-2.84,3.34-4.25,6.59-4.25,9.75v117.5c0,8.17,1.33,13.84,4,17,1.33,1.84,2,3.42,2,4.75,0,1.17-.34,2-1,2.5l-2.75.5c-.34-.16-.67-.25-1-.25s-.84-.08-1.5-.25c-5.17-2.66-9-4-11.5-4-2.34,0-5,.5-8,1.5l-9,3h-3v-5.5c1.5-1.5,2.83-4,4-7.5,1.33-4,2-6.83,2-8.5v-107c0-3-1.5-5.66-4.5-8-1.34-1-2.09-2.08-2.25-3.25,1.33-1,3.33-2.38,6-4.12,2.66-1.75,6-3.79,10-6.12,11.16-6.66,18.25-10,21.25-10l2.25,1,1.5,2-4.25,5Z"/>
    <path class="cls-2" d="M657.38,149.61l-23.75,14.41-15.5,8.95c-9.67,5.63-14.5,8.7-14.5,9.19,1.66,2.16,3.16,3.89,4.5,5.22,1.33,1.33,2.41,2.32,3.25,2.98,6.66,5.63,14.25,8.45,22.75,8.45,6.33,0,12.16-1.91,17.5-5.75l12.5-12.5c1.16,0,2,.42,2.5,1.25l.75,4c0,7.5-4.42,15.75-13.25,24.73-8.67,8.84-16.84,13.27-24.5,13.27h-10.75c-8,0-16.09-5.08-24.25-15.25-8.34-10.33-12.5-19.5-12.5-27.5v-20.75c0-8.83,4.5-18.16,13.5-28,9.16-10,18.16-15,27-15h8c2.83,0,9.91,3.31,21.25,9.94,11.66,6.46,17.58,10.52,17.75,12.18,0,1.82-4.09,5.22-12.25,10.19ZM622.63,133.06c-2.17-2.66-4.92-4-8.25-4-4.17,0-7.84,1.84-11,5.5l-7.5,13.75v15c.33.17.88,1.42,1.62,3.75.75,2.34,2.04,4.42,3.88,6.25.33-.5,4.75-3.33,13.25-8.5l25.75-15.25c-4.84-2.33-10.75-7.83-17.75-16.5Z"/>
    <path class="cls-2" d="M739.38,155.81h-2.5l-.25-3.75.25-3.75v-3.25c0-4.5-2.5-6.75-7.5-6.75-1.84,0-4.09,1.5-6.75,4.5-2.67,2.67-4,5-4,7v58.75c0,1.5,1.16,3.67,3.5,6.5,2.33,2.84,3.5,4.75,3.5,5.75,0,.84-.42,1.67-1.25,2.5l-2.75.5-6-3c-2-1-4.59-1.5-7.75-1.5-3.67,0-6.75.5-9.25,1.5l-7.5,3h-2l-1.75-3,3.75-4.5c2.5-3.66,3.75-6.5,3.75-8.5v-57.5c0-4.66-1.75-8-5.25-10l-11.5-4.5c0-1,3.25-4.16,9.75-9.5,6.66-5.33,10.75-8.25,12.25-8.75l3.5,1.75c6,4.34,10.41,9.67,13.25,16,.83-.33,3.58-3.16,8.25-8.5,4.66-5.66,9.66-8.5,15-8.5l10.5,2c5.16,1,8.5,2.34,10,4l-21.25,31.5Z"/>
    <path class="cls-2" d="M778.37,223.81v-3.25l4-8c1.5-3,2.25-6.16,2.25-9.5v-57c0-5.5-3.42-8.25-10.25-8.25-1.5,0-3.34-1.33-5.5-4,2.5-2.5,7.33-5.66,14.5-9.5l13.25-7c3.5,0,6.58,3.34,9.25,10l4.25,9.75v69.25c0,3.34.83,6.34,2.5,9l4.75,6v2.5h-39ZM807.87,98.56c-4.5,6.5-8.25,9.75-11.25,9.75-1.84,0-3.5-3.33-5-10-1.34-6.33-2-10.58-2-12.75,0-4,1.12-7.29,3.38-9.88,2.25-2.58,5.12-3.88,8.62-3.88s6.58,1.17,9.25,3.5c2.66,2.34,4,5.25,4,8.75,0,3-2.34,7.84-7,14.5Z"/>
    <path class="cls-2" d="M919.12,215.31c-.84.67-2.12,1.5-3.88,2.5s-3.96,2.34-6.62,4c-.17.17-.42.34-.75.5-.34.17-.75.42-1.25.75-3.17,0-6.09-1.75-8.75-5.25l-9-11.5-13.5,8.75c-8.5,5.5-13.42,8.42-14.75,8.75-7.67,0-15.59-3.91-23.75-11.75-9.67-9.5-14.5-20.91-14.5-34.25,0-12,6.33-24.83,19-38.5,13.66-14.66,27.5-22,41.5-22,2,0,6.25,2,12.75,6,6.33,3.84,10.75,5.92,13.25,6.25,3.66,0,8.5-2.5,14.5-7.5h3v3l-10,13.75c-3,4.34-4.5,9.75-4.5,16.25v34.25c0,6.67,3,11.34,9,14,5.83,2,8.91,3.5,9.25,4.5l-11,7.5ZM895.87,148.56c-.84,0-1.75.17-2.75.5l-2,.5c-3.84,0-8.84-2.5-15-7.5-5.84-5.16-10-7.75-12.5-7.75-6,0-10.59,2.84-13.75,8.5-3,4.84-4.5,10.34-4.5,16.5l-.75,2.75-.75,3.5c0,7,3.66,15.34,11,25,5.83,7.34,12.33,11,19.5,11,3.33,0,6.25-.58,8.75-1.75l5-2v-30.5l3.25-4.75,8.25-15.25v2.25c-.67-.66-1.92-1-3.75-1Z"/>
  </g>
</svg>