<?xml version="1.0" encoding="UTF-8"?>
<svg id="Camada_1" data-name="Camada 1" xmlns="http://www.w3.org/2000/svg" viewBox="0 0 1200 300">
  <defs>
    <style>
      .cls-1 {
        fill: #9f32ed;
      }

      .cls-2 {
        fill: #f4f4f4;
      }
    </style>
  </defs>
  <path class="cls-1" d="M203.64,199.56c-.5.34-1.12.75-1.88,1.25s-1.54,1.09-2.38,1.75l-4.25,3.25c1.66,4.17,4.83,7.25,9.5,9.25,3.5,1.5,5.41,3.17,5.75,5,0,2.34-2.67,3.91-8,4.75-5.84,0-11.67-3.91-17.5-11.75-4.84-6.83-7.25-15.08-7.25-24.75v-34.5c0-8.33-3.5-15.75-10.5-22.25-6.67-6.66-14.25-10-22.75-10-5.34,0-12.5,2.25-21.5,6.75-10,5-15,9.75-15,14.25v63.25c0,2,.83,4.17,2.5,6.5l5,7.75c0,1.34-.42,2.17-1.25,2.5l-3.5.5-4.75-1-6.5-2h-12.75c-1.67,0-3.59.59-5.75,1.75l-4,2-2.5-1c-1.17-.83-1.84-2-2-3.5.16-.33.38-.71.62-1.12.25-.41.38-.71.38-.88,1.83-2,3.83-5.83,6-11.5v-110c0-5-3.42-10.16-10.25-15.5-6.84-5.33-10.25-8.66-10.25-10l.5-3.5c.66-.66,2-1,4-1,2.16.84,4.29,1.67,6.38,2.5,2.08.84,4.21,1.67,6.38,2.5,5,2.17,9.25,3.25,12.75,3.25h8.5l47.5-10h2.5l9.5.25h9.5c5.66,0,11.83,2.59,18.5,7.75,6.83,5,10.25,10.17,10.25,15.5,0,2.34-.5,4.34-1.5,6-1,1-2.84,1.59-5.5,1.75-2,0-8.42-3.16-19.25-9.5-10.84-6.33-18.67-9.5-23.5-9.5h-6c-1.34,0-6.17.92-14.5,2.75-1.34.34-3.29.88-5.88,1.62-2.59.75-5.79,1.79-9.62,3.12v41.5l19-12c6.66-3,13.83-4.5,21.5-4.5,18.33,0,33.91,7.17,46.75,21.5,11,12.34,16.5,25.17,16.5,38.5v11.25c0,8.17-3.17,14.67-9.5,19.5Z"/>
  <g>
    <path class="cls-2" d="M310.63,215.31c-.84.67-2.12,1.5-3.88,2.5s-3.96,2.34-6.62,4c-.17.17-.42.34-.75.5-.34.17-.75.42-1.25.75-3.17,0-6.09-1.75-8.75-5.25l-9-11.5-13.5,8.75c-8.5,5.5-13.42,8.42-14.75,8.75-7.67,0-15.59-3.91-23.75-11.75-9.67-9.5-14.5-20.91-14.5-34.25,0-12,6.33-24.83,19-38.5,13.66-14.66,27.5-22,41.5-22,2,0,6.25,2,12.75,6,6.33,3.84,10.75,5.92,13.25,6.25,3.66,0,8.5-2.5,14.5-7.5h3v3l-10,13.75c-3,4.34-4.5,9.75-4.5,16.25v34.25c0,6.67,3,11.34,9,14,5.83,2,8.91,3.5,9.25,4.5l-11,7.5ZM287.38,148.56c-.84,0-1.75.17-2.75.5l-2,.5c-3.84,0-8.84-2.5-15-7.5-5.84-5.16-10-7.75-12.5-7.75-6,0-10.59,2.84-13.75,8.5-3,4.84-4.5,10.34-4.5,16.5l-.75,2.75-.75,3.5c0,7,3.66,15.34,11,25,5.83,7.34,12.33,11,19.5,11,3.33,0,6.25-.58,8.75-1.75l5-2v-30.5l3.25-4.75,8.25-15.25v2.25c-.67-.66-1.92-1-3.75-1Z"/>
    <path class="cls-2" d="M409.88,198.56l-17.75,12.75c-11.84,8.34-18.92,12.5-21.25,12.5-8.5,0-16.09-6-22.75-18-2.34-4.16-4.67-10.16-7-18v-91c0-2.5-1.92-5.91-5.75-10.25-1.67-1.83-2.59-3.58-2.75-5.25l16-8.75c5.16-2.83,9.21-4.96,12.12-6.38,2.91-1.41,4.71-2.21,5.38-2.38l4,.5c1,.5,1.5,1.34,1.5,2.5-5,3.84-7.5,9-7.5,15.5v50.5c3.5-.5,9.41-3.08,17.75-7.75,9.16-5.16,15.41-7.75,18.75-7.75,6.16-.16,13.16,4.5,21,14,8,9.34,12,17.17,12,23.5v7c0,10.67-7.92,22.92-23.75,36.75ZM410.63,166.31c0-6-3.34-12.58-10-19.75-6.67-7.16-13-10.75-19-10.75-5.17,0-10.59,2.84-16.25,8.5v37.5c0,3.84,2.58,8.59,7.75,14.25,5.16,5.67,9.5,8.5,13,8.5,4.33,0,9.5-3.16,15.5-9.5,6-6.5,9-12,9-16.5v-12.25Z"/>
    <path class="cls-2" d="M453.38,223.81v-3.25l4-8c1.5-3,2.25-6.16,2.25-9.5v-57c0-5.5-3.42-8.25-10.25-8.25-1.5,0-3.34-1.33-5.5-4,2.5-2.5,7.33-5.66,14.5-9.5l13.25-7c3.5,0,6.58,3.34,9.25,10l4.25,9.75v69.25c0,3.34.83,6.34,2.5,9l4.75,6v2.5h-39ZM482.88,98.56c-4.5,6.5-8.25,9.75-11.25,9.75-1.84,0-3.5-3.33-5-10-1.34-6.33-2-10.58-2-12.75,0-4,1.12-7.29,3.38-9.88,2.25-2.58,5.12-3.88,8.62-3.88s6.58,1.17,9.25,3.5c2.66,2.34,4,5.25,4,8.75,0,3-2.34,7.84-7,14.5Z"/>
    <path class="cls-2" d="M534.13,71.81c-2.84,3.34-4.25,6.59-4.25,9.75v117.5c0,8.17,1.33,13.84,4,17,1.33,1.84,2,3.42,2,4.75,0,1.17-.34,2-1,2.5l-2.75.5c-.34-.16-.67-.25-1-.25s-.84-.08-1.5-.25c-5.17-2.66-9-4-11.5-4-2.34,0-5,.5-8,1.5l-9,3h-3v-5.5c1.5-1.5,2.83-4,4-7.5,1.33-4,2-6.83,2-8.5v-107c0-3-1.5-5.66-4.5-8-1.34-1-2.09-2.08-2.25-3.25,1.33-1,3.33-2.38,6-4.12,2.66-1.75,6-3.79,10-6.12,11.16-6.66,18.25-10,21.25-10l2.25,1,1.5,2-4.25,5Z"/>
    <path class="cls-2" d="M552.13,223.81v-3.25l4-8c1.5-3,2.25-6.16,2.25-9.5v-57c0-5.5-3.42-8.25-10.25-8.25-1.5,0-3.34-1.33-5.5-4,2.5-2.5,7.33-5.66,14.5-9.5l13.25-7c3.5,0,6.58,3.34,9.25,10l4.25,9.75v69.25c0,3.34.83,6.34,2.5,9l4.75,6v2.5h-39ZM581.63,98.56c-4.5,6.5-8.25,9.75-11.25,9.75-1.84,0-3.5-3.33-5-10-1.34-6.33-2-10.58-2-12.75,0-4,1.12-7.29,3.38-9.88,2.25-2.58,5.12-3.88,8.62-3.88s6.58,1.17,9.25,3.5c2.66,2.34,4,5.25,4,8.75,0,3-2.34,7.84-7,14.5Z"/>
    <path class="cls-2" d="M696.37,71.06c-2.5,2.84-3.75,6-3.75,9.5v123.5c.33.84.71,1.92,1.12,3.25.41,1.34,1.04,2.92,1.88,4.75,1,2.67,2,5.34,3,8,0,2.5-1,3.75-3,3.75-.84-.33-1.59-.66-2.25-1-.67-.33-1.42-.66-2.25-1-2.17-1.16-4.75-1.75-7.75-1.75-2.67,0-4.59.34-5.75,1l-6.75,2c-1.34,0-2.34-.58-3-1.75l-.5-4.25.5-4.5-.5-4.25c-14.34,10.34-24.92,15.5-31.75,15.5-8.5,0-17.25-4.58-26.25-13.75-8.84-9.33-13.25-18.25-13.25-26.75v-14.5c0-12.33,10.16-26.41,30.5-42.25,7.66-6.16,13.33-9.25,17-9.25h10.5l4.5,1.25c1.33.67,2.38,1.12,3.12,1.38s2.38,1.12,4.88,2.62l2-2.25v-24.25c0-4.5-1.34-7.75-4-9.75-2.5-1.83-3.92-3.5-4.25-5l16.25-8.75c9.83-5.33,16.16-8.25,19-8.75,2.66,0,4.16,1,4.5,3l-3.75,4.25ZM667.87,150.31c-11.34-11.33-20.75-17-28.25-17s-13.46,2.75-17.88,8.25c-4.42,5.5-6.62,12.25-6.62,20.25v3.75l-1.5,1.75c8.5,22,19.75,33,33.75,33h6.75c2.33,0,4.83-.83,7.5-2.5l6.25-6.25v-41.25Z"/>
    <path class="cls-2" d="M807.37,215.31c-.84.67-2.12,1.5-3.88,2.5s-3.96,2.34-6.62,4c-.17.17-.42.34-.75.5-.34.17-.75.42-1.25.75-3.17,0-6.09-1.75-8.75-5.25l-9-11.5-13.5,8.75c-8.5,5.5-13.42,8.42-14.75,8.75-7.67,0-15.59-3.91-23.75-11.75-9.67-9.5-14.5-20.91-14.5-34.25,0-12,6.33-24.83,19-38.5,13.66-14.66,27.5-22,41.5-22,2,0,6.25,2,12.75,6,6.33,3.84,10.75,5.92,13.25,6.25,3.66,0,8.5-2.5,14.5-7.5h3v3l-10,13.75c-3,4.34-4.5,9.75-4.5,16.25v34.25c0,6.67,3,11.34,9,14,5.83,2,8.91,3.5,9.25,4.5l-11,7.5ZM784.12,148.56c-.84,0-1.75.17-2.75.5l-2,.5c-3.84,0-8.84-2.5-15-7.5-5.84-5.16-10-7.75-12.5-7.75-6,0-10.59,2.84-13.75,8.5-3,4.84-4.5,10.34-4.5,16.5l-.75,2.75-.75,3.5c0,7,3.66,15.34,11,25,5.83,7.34,12.33,11,19.5,11,3.33,0,6.25-.58,8.75-1.75l5-2v-30.5l3.25-4.75,8.25-15.25v2.25c-.67-.66-1.92-1-3.75-1Z"/>
    <path class="cls-2" d="M929.62,71.06c-2.5,2.84-3.75,6-3.75,9.5v123.5c.33.84.71,1.92,1.12,3.25.41,1.34,1.04,2.92,1.88,4.75,1,2.67,2,5.34,3,8,0,2.5-1,3.75-3,3.75-.84-.33-1.59-.66-2.25-1-.67-.33-1.42-.66-2.25-1-2.17-1.16-4.75-1.75-7.75-1.75-2.67,0-4.59.34-5.75,1l-6.75,2c-1.34,0-2.34-.58-3-1.75l-.5-4.25.5-4.5-.5-4.25c-14.34,10.34-24.92,15.5-31.75,15.5-8.5,0-17.25-4.58-26.25-13.75-8.84-9.33-13.25-18.25-13.25-26.75v-14.5c0-12.33,10.16-26.41,30.5-42.25,7.66-6.16,13.33-9.25,17-9.25h10.5l4.5,1.25c1.33.67,2.38,1.12,3.12,1.38s2.38,1.12,4.88,2.62l2-2.25v-24.25c0-4.5-1.34-7.75-4-9.75-2.5-1.83-3.92-3.5-4.25-5l16.25-8.75c9.83-5.33,16.16-8.25,19-8.75,2.66,0,4.16,1,4.5,3l-3.75,4.25ZM901.12,150.31c-11.34-11.33-20.75-17-28.25-17s-13.46,2.75-17.88,8.25c-4.42,5.5-6.62,12.25-6.62,20.25v3.75l-1.5,1.75c8.5,22,19.75,33,33.75,33h6.75c2.33,0,4.83-.83,7.5-2.5l6.25-6.25v-41.25Z"/>
    <path class="cls-2" d="M1019.12,149.61l-23.75,14.41-15.5,8.95c-9.67,5.63-14.5,8.7-14.5,9.19,1.66,2.16,3.16,3.89,4.5,5.22,1.33,1.33,2.41,2.32,3.25,2.98,6.66,5.63,14.25,8.45,22.75,8.45,6.33,0,12.16-1.91,17.5-5.75l12.5-12.5c1.16,0,2,.42,2.5,1.25l.75,4c0,7.5-4.42,15.75-13.25,24.73-8.67,8.84-16.84,13.27-24.5,13.27h-10.75c-8,0-16.09-5.08-24.25-15.25-8.34-10.33-12.5-19.5-12.5-27.5v-20.75c0-8.83,4.5-18.16,13.5-28,9.16-10,18.16-15,27-15h8c2.83,0,9.91,3.31,21.25,9.94,11.66,6.46,17.58,10.52,17.75,12.18,0,1.82-4.09,5.22-12.25,10.19ZM984.37,133.06c-2.17-2.66-4.92-4-8.25-4-4.17,0-7.84,1.84-11,5.5l-7.5,13.75v15c.33.17.88,1.42,1.62,3.75.75,2.34,2.04,4.42,3.88,6.25.33-.5,4.75-3.33,13.25-8.5l25.75-15.25c-4.84-2.33-10.75-7.83-17.75-16.5Z"/>
    <path class="cls-2" d="M1113.87,213.31c-10.84,7-22.17,10.5-34,10.5-9.67,0-18.34-2-26-6-9.34-4.83-14-11.66-14-20.5,0-3.66,1.25-6.96,3.75-9.88,2.5-2.91,5.5-4.38,9-4.38.5,0,1.29.12,2.38.38,1.08.25,2.16.62,3.25,1.12,1.08.5,2.04,1,2.88,1.5.83.5,1.25,1,1.25,1.5-.34,1-1,1.84-2,2.5-2.67,1.67-4,4.84-4,9.5s2.25,8.67,6.75,11.5c4.5,2.84,10.25,4.25,17.25,4.25,8,0,14.91-2.75,20.75-8.25,5.83-5.5,8.75-12.25,8.75-20.25,0-4.66-1.54-8.83-4.62-12.5-3.09-3.66-6.79-5.5-11.12-5.5-2.5,0-5,1.29-7.5,3.88-2.5,2.59-3.75,5.12-3.75,7.62l.75,2.75,1.5,1.5v3c-19.84,0-33-8.5-39.5-25.5l-2.75-9.75c.16-1.33.66-2.41,1.5-3.25,0-4.5.79-8.71,2.38-12.62,1.58-3.91,3.79-7.29,6.62-10.12s6.21-5.04,10.12-6.62c3.91-1.58,8.12-2.38,12.62-2.38,5.16,0,10.41,1,15.75,3l16,6.25c.83,0,2-.75,3.5-2.25.83-1.33,2.16-2.08,4-2.25h3.75v2.25l-6.75,12c-2.84,5-6.84,7.5-12,7.5h-7c-1.84,0-6.84-2.25-15-6.75-8.34-4.5-14.09-6.75-17.25-6.75-1.34.5-2.59,1.17-3.75,2-2.67,2.5-4,5.84-4,10,0,5.5,3.41,10.17,10.25,14,5.66,3.17,11.58,4.75,17.75,4.75,2,0,6.16-2.41,12.5-7.25,2.66-2.16,5.5-3.25,8.5-3.25h6c6.16,0,11.58,2.84,16.25,8.5,4.83,5.67,7.25,11.42,7.25,17.25v8.25c0,11.5-6,21.09-18,28.75Z"/>
  </g>
</svg>