<?xml version="1.0" encoding="UTF-8"?>
<svg id="Camada_2" data-name="Camada 2" xmlns="http://www.w3.org/2000/svg" viewBox="0 0 1822.73 4000">
  <defs>
    <style>
      .cls-1 {
        fill: #f4f4f4;
      }
    </style>
  </defs>
  <path class="cls-1" d="M1769.88,3178.52c-.36-1.13-6.97-17.17-7.47-18.03-1.66-2.87-9.12-4.23-11.05-7.45-6.08-10.11.22-32.54-12.97-42.99-18.14-14.39-19.26,10.54-35.98,9.01-3.18-15.21,6.44-30.48-18.21-25.02-.14,12.37-19.03,30.32-21.65,11.96-.51-3.6-.23-7.25-.2-10.85l6.98.11,2.98-19.15c8.63,2.01,12.27-5.29,18.94-9.01,10.48-5.85,22.4-9.98,30.73-19.24-1.79-9.41,5.02-23.59,4.26-31.58-.36-3.83-4.91-7.38-5.3-12.33-.26-3.32,1.67-7.6,1.54-11.72-.43-13.2.84-33.27-1.14-45.09-.25-1.51-.63-3.67-2.35-4l-14.65-.9c7.9-15.02,23.7-11.41,24.04-32.1.08-4.75-2.13-9.07-2.15-13.81-.08-16.26.47-32.56-.17-48.79-16.56-5.65-21.83-.12-25.47-19.51-10.07-53.79-8.59-115.05-6.37-169.54-2.95-17.29-24.14-16.92-25.88-26.09-1.9-10.02,1.9-20.64,2.1-29.92.86-39.92,6.05-95.83-.18-133.91-2.09-12.8-11.3-12.59-13.48-15.51-3.9-5.23-.91-23.57-2.83-30.16-.79-2.7-4.54-4.9-5.98-8-7.03-15.08,1.2-24.17.5-38.31-.54-11.04-12.39-27.61-14.06-36.09-3.3-16.73,2.79-35.55-3.04-54.93-7.37-24.49-18.44-49.6-22.77-75.18-1.54-9.08,2.03-23.83-6.18-30.78-1.14,15.8,1.49,33.39-.04,48.96-.81,8.21-4.55,16.1-5.77,24.22-.97,6.44.87,13.84-.25,19.74-1.04,5.48-6.45,6.59-7.56,10.43-4.62,16-.67,38.79-2.61,55.36-1.66,14.25-11.85,26.59-13.65,38.32-2.06,13.39,4.02,28.24,1.78,39.78-.82,4.22-4.6,6.58-5.51,10.47-1.69,7.27.3,21.66-1.97,27.71-2.42,6.45-10.59,8.53-12.06,22.48-2.11,19.96,9.19,67.12,3.48,80.81-6.27,15.01-3.1,23.98-3.74,40.6-.29,7.5-3.51,13.32-.39,21.52-4.17,10.09-26.06,17.01-28.8,25.24-3.85,11.53,3.86,29.32,1.13,42.12-11.94,1.84-19.69-1.91-29.84-7.16-9.17-4.75-19.75-13.85-29.03-18.99-20.83-11.55-45.62-17.34-68.41-27.48-45.81-20.38-93.28-49.98-123.06-90.81-5.33-25.75-7.23-51.98-12.13-77.82-10.43-54.93-20.11-72.86-13.81-131.02,1.4-12.9-1.32-39.91-4.09-52.98-1.42-6.67-6.07-12.21-5.54-19.45l-22.01-.97c-2.83-5.96-6.19-16.57-2.03-22.26,2.36-3.23,9.3-4.25,9.84-5.13,1.41-2.32-.77-8.89,1.34-13.67,2.49-5.62,13.91-10.33,17.04-14.92,6.29-9.23.05-48.95-.18-61.98-1.85-103.99,3.72-193.12-7.92-297.93-1.84-16.61-3.38-37.4-9.02-52.95-2.75-7.58-11.62-18.5-12.53-25.49-.93-7.14,5.34-13.33,2.76-22.69-1.51-5.47-9.93-5.33-11.13-15.02-.94-7.6,3.36-10.66,3.39-15.4.06-8.29-7.38-12.24-7.67-18.41-.28-5.93,3.35-7.96,4.13-12.08,3.19-16.83-11.77-47.19-13.92-64.87h-5.96v34.98c0,6.39-6.56,7.62-8.12,9.79-1.61,2.23-3.77,16.56-3.45,19.75.52,5.16,6.08,9.65,5.68,14.34-.41,4.85-8.48,7.86-9.17,14.88-.46,4.7,4.33,7.93,4.65,11.55.12,1.39-3.41,24.12-4.02,27.2-2.21,11.02-13.83,24.07-17,36.97-2.59,10.59-3.59,26.21-4.52,37.44-.9,10.86-.88,22.16-.04,32.95-4.65,1.27-3.35-1.1-4.58-2.53-2.87-3.33-16.57-21.73-17.3-24.55-.02-37.77-11.83-88.69-5.62-125.36,3.22-19.06,20.6-60.03,29.88-78.07,6.84-13.31,22.42-31.11,23.58-44.39,1.68-19.23-5.87-42.52-4.08-57.89,2.45-21.07,2.53-37.3,4.14-57.99,1.15-14.72,7.19-29.42,8.04-43.92,1.54-26.25-5.74-60.71-9.9-86.2-2.06-12.6.92-31.17-2.58-43.39-1.38-4.82-11.84-12.65-13.15-16.83-4.01-12.78-2.51-36.2-4.89-51.08-2.64-16.55-9.36-33.3-13.54-49.44-6.26,4.5-7.02,17.48-7.95,25.01-2.18,17.76-3.46,42.14-4.1,60.04-.21,5.89,3.55,11.23,1.7,17.45-1.48,4.97-7.38,5.62-9.55,9.04-3.96,6.22-8.28,20.84-8.07,28.4-14.19.69-7.9-22.81-7.9-30.91.07-87.69-18.65-173.6-22.16-259.87-1.14-28,7.7-35.89,11.6-58.52,1.58-9.16.05-24.4-4.61-32.47-1.66-2.88-5.36-3.22-6.96-5.55-14.51-21.03-14.1-53.28-18.05-77.34-1.95-11.85-10.91-27.02-9.89-41.09-2.67-2.43-11.4,10.2-11.94,13.03-4.31,22.58,4.13,55.27-6.57,79.39-3.29,7.42-18.09,22.21-20.5,30.37-4.4,14.89-1.98,44.72,6.46,58.35l-1.67,71.47-12.92,5.15-4.51-3.2c-7.82-68.1-3.18-137.12-4.3-205.6,6.63-25.49,30.31-43.61,36.97-69.96.43-43.83-3.02-88.39-3.17-131.93-.06-16.46,9.95-36.38,10.24-54.07.19-11.34-8.47-17.93-5.96-31.8.63-3.5,3.85-5.55,4.01-9.98.3-8.21-6.95-19.3-7.76-26.62-.86-7.71-3.39-18.72-3.7-23.71-.3-4.75,2.79-9.35.97-15.33-.91-3.01-4.78-4.75-6.46-7.55-3.12-5.19-2.13-13.51-11.13-11.84,2.14,9.11-3.3,16.8-4.02,24.97-.92,10.33,1.76,23.97-.41,33.56-2.4,10.58-14.46,6.52-11.47,26.3.64,4.24,4.19,7.36,3.9,11.95-.28,4.41-5.01,10.34-5.81,16.33-1.54,11.45.28,27.04-.79,37.56-.66,6.46-5.06,15.37-4.35,23.27-2.06,5.81-5.61-4.14-5.9-5.82-12-70.75-10.22-138.53-17.15-209.07-6.34-64.53-20.62-130.62-26.89-195.99-1.22-12.76-5.08-31.5,8.78-36.17.03-49.65-26.62-94.6-35.83-142.68l-5.51,3.46c-5.56,37.52-41.14,101.33-34.48,137.52.9,4.87,4.82,4.16,6.14,6.32,2.69,4.38,2.16,24.56,1.69,31.24-7.39,104.15-34.8,206.59-31.8,312.19l-13.99,100.97c-3.23-1.04-5.23-3.78-5.91-7.06-3.36-16.19.23-35.13-2.28-51.69-1.05-6.94-5.68-14.72-5.92-20.23-.32-7.26,3.83-15.01,2.09-23.93-1.15-5.9-7.56-7.3-9.86-14.23-3.1-9.34.41-18.42-.28-25.57-1.01-10.48-4.3-22.51-5.93-33.1l-6.02,1.13c.1,6.2-8.35,12.37-9.42,16.18-1.34,4.78.25,10.33-.66,15.33-2.32,12.77-4.29,23.31-7.16,34.83-4.26,17.06.74,20.16.69,33.03-.03,7-4.37,12.88-5.16,18.46-3.07,21.6,6.1,33.33,7.99,51.75,2.52,24.59-2.72,60.93-2.13,87.92.53,24.17-1.14,55.76,9.68,76.44,6.47,12.36,19.55,25.09,24.67,37.29,7.5,17.89,2.05,54.45,2.16,74.42.23,42.87,4.11,97.58-3.05,139.37-.28,1.64-.93,5.29-2.73,5.62l-14.28-2.56-1.49-3.49c1.44-21.07-3.77-48.77-1.03-69.16.95-7.05,6.8-14.97,7.87-24.11,1.07-9.12.02-31.98-3.15-40.34-1.91-5.05-18.51-23.06-20.16-27.88-2.5-7.3-5.85-31.21-6.52-39.65-.91-11.48,2.1-29.01.09-39.91-.53-2.89-4.34-5.61-6.65-7.57-1.12-.96-2.11-5.77-4.41-1.4-1.7,3.22-2.34,17.99-3.93,24.06-1.46,5.61-5.17,10.31-6.29,15.26-4.39,19.39-2.87,45.48-10.79,65.61-5.09,12.95-15.88,13.27-17.66,32.16-1.92,20.39,5.35,33.49,11.12,52.47-1.93,77.07-17.67,154.22-21.37,231.29-.62,12.95,2.18,76.28-1.84,81.76l-6.16,1.2c-.13-14.59-6.81-28.24-17.64-37.44-.76-25.18.54-52.49-2.38-77.49-.93-7.94-2-18.79-6.97-25.01-6.05,15.94-11.66,32.52-14.44,49.51-2.48,15.16-1.19,38.09-4.94,51.04-1.27,4.4-11.67,11.4-13.49,18.49-3.24,12.6-.66,27.44-2.27,39.7-4.26,32.27-12.45,61.91-9.79,96.09,1.14,14.61,6.37,30.38,7.41,45.24,2.65,37.9.7,76.28.59,114.67,12.84,18.88,25.59,40.46,34.32,61.62,18.53,44.92,19.64,67.95,17.64,116.42-.89,21.68-3.18,44.35-6.29,65.62l-19.72,25.23c2.21-15.08-1.86-29.31-3.19-43.33-.74-7.84.54-17.43-1.04-25.43-4.8-24.34-22.4-35.76-21.43-66.24.15-4.8,4.12-8.9,3.65-13.82-.54-5.64-9.3-11.72-9.76-14.39-.45-2.58,4.47-6.27,5.37-10.11.92-3.92,1.11-13.63.36-17.54-1.18-6.15-8.18-7.87-9.53-12.45-2.01-6.8,1.74-35.83-2.53-38.49l-5.86-.09c.24,18.27-15.1,46.17-13.94,62.9.51,7.32,9.85,9.31,3.92,19.67-.77,1.34-3.67,1.51-4.6,3.82-4.67,11.66,3.75,14.82,2.58,24.37-1.19,9.67-9.64,9.56-11.14,15.03-2.59,9.4,3.9,16.1,2.82,22.74-.8,4.95-9.51,13.3-10.59,19.44-24.47,108.8-25.91,222.28-18.85,332.8l-2.26,13.91c3.56,15.07-6.21,61.53,1.21,72.92,2.32,3.56,15.97,11.26,17.93,16.15,1.29,3.22-1.95,6.5-.22,9.93,3.88,7.67,21.97,8.16,9.26,29.12l-22.29,1.84c-1.24,7.73-5.84,14.92-7.33,22.5-7.28,37.03,4.26,70.99-.53,107.44-4.69,35.64-17.35,72.25-23.03,108.89-2.87,18.54,1.92,31.59-10.93,49.02-34.57,46.89-105.61,78.61-157.99,99.85-26.08,10.58-42.8,22.46-66.41,33.16-1.18.53-1.14,3.56-2.79,3.93-3.31.75-15.9.79-17.72-1.83l.8-43.8c-11.27-5.21-22.61-12.93-29.17-23.54.49-3.92,1.72-7.59,1.62-11.65-.33-12.77-.45-32.16-1.95-44.22-.47-3.82-3.83-1.91-4.31-5.73-3.21-25.51,12-72.61-.17-93.76-1.88-3.27-6.34-5.64-7.27-8.72-2.13-7.1.94-17.9-.49-25.5-.94-5.01-6.85-10.1-7.55-16.62-1.02-9.48,4.56-23.03,3.52-33.22-1.23-12.01-14.41-27.62-15.75-40.43-1.59-15.14,3.32-33.34-.21-51.66-1.19-6.15-7.92-10.01-8.97-14.09-1.05-4.08-.45-17.9-1.21-23.72-.87-6.59-4.73-15.4-5.08-20.51-.77-11.33,2.41-27.01,1.45-39.81-.27-3.58.56-6.47-3.09-8.87-4.5,0-2.72,18.58-3.26,22.69-3.63,27.7-14.66,53.37-22.32,79.63-6.39,21.92-.21,38.02-4.3,57.76-1.4,6.78-11.59,23.25-12.98,30.89-2.36,13.04,4.29,27.08,1.46,39.46-1.25,5.46-7.83,10.59-9.11,16.86-1.47,7.18,1.17,17.64-.77,23.21-.78,2.23-11.26,8.84-12.93,12.02-5.16,9.8-3.08,68.86-2.82,84.33.34,20.14,6.58,61.72,3.26,79.49-3.73,19.96-15.1,12.97-22.11,21.43-8.32,10.05-1.42,34.75-1.08,46.94.8,28.65-1.23,63.25-4,91.91-.8,8.32-5.76,52.95-10,55.97l-20.06,6.32c.35,21.28-5.21,48.79-1.78,69.55,2.27,13.72,19.93,10.52,21.89,24.08l-16.02,1.01c.96,15.57-.71,31.16-1.23,46.65-.41,11.95-2.41,19.53-2.95,28.3-.19,3.05,3.26,28.68,4.26,31.46,2.17,6.03,36.79,18.25,41.99,26.59l7.9-1.07c.61,7.95-2.07,13.21,3.89,21.16l6.1-1.17c.25,5.87.63,12.45-3.95,17.03l-8.69.68c-7.88-2.69-7.44-31.81-27.04-16.42,1.16,46.08-14.14,10.88-25.68,9.07-15.75-2.46-19.95,19.98-22.01,31.18-.92,5,.4,11.23-.85,15.14-1.37,4.29-10.68,4.87-12.71,9.27-1.78,3.86-.19,7.51-.95,10.6-.52,2.13-4.05,2-4.96,3.39-1.06,1.63-.71,29.93-.06,31.91,1.06,3.22,11.44,19.39,14.12,21.96,3.21,3.08,8.89,2.44,10.47,7.5,3.6,11.55-7.58,25.77,3.64,34.48,9.43,2.72,12.48-21.58,15.21-28.37,11.32-28.17,21.02-34.02,48.41-17.39l22.12,3.9c6.18,9.13-20.87,24.21-21.13,32.89-.63,20.91,14.7,23.64,30.16,30.42.44,27.39-1.71,58.43,4.42,85.22,2.02,8.85,8.03,4.76,10.16,9.87,3.83,9.2-.9,17.6-.13,24.31.54,4.67,8.17,10.99,9.32,18.35.82,5.24.84,18.36-.3,23.43-1.7,7.57-9.38,9.16-9.71,10.79-.71,3.51,2.57,27.61,7.14,30.58,4.3.02,12.54-41.38,14.38-47.54,5.1-17.04,8.95-26.53,13.14-44.82,7.13-31.11,14.86-62.11,20.34-93.59,7.78-6.55,11.63,2.61,15.86,4.4,7.51,3.17,17.79,3.55,25.9,4.01,3.28,1.04,11.26,18.38,11.36,22.61.26,11.86-9.96,19.89-13.13,30.97-11.07,38.66,7.3,53.06,9.89,85.78,1.36,17.17-2.66,35.92-2.87,53.11-.58,47.25-2.16,105.56,4.25,151.85.37,2.67,2.35,10.63,4.84,11.19,14.02-4.94,14.11-16.56,16.63-29.31,13.74-69.47,11.68-144.88,14.35-215.53,8.29-9.65,7.61-19.65,11.98-31.02,3.85-.6,5.33,1.57,5.95,5.01,2.36,12.95-3.37,29.12-2.1,39.92.55,4.7,2.83,6.98,3.66,10.49,2.58,10.99-2.72,13.09,11.06,18.93,6.56,2.78,17.59,2.8,22.48,7.5,4.07,3.91,13.3,29.86,17.89,30.04,6.67.26-2.25-14.39-.98-15.95,7.49,2.16,12.78,6.99,13.97,14.99,2.48,16.64-1.83,38.67,0,55.97l4.7,2.75c10.47-1.5,10.21-24.09,10.97-33.03.71-8.36-1.29-19.16.8-27.22,1.91-7.37,15.46-21.51,22.52-25.45,2.42,8,.09,16.71,1.07,24.88.36,3.02,3.63,5.2,3.89,8.17.32,3.62-2.89,6.48-1.06,10.84,3.16,7.54,19.93,8.61,27.07,8.08-1.63,21.29-15.34,33.77-12.1,57.07,1.32,9.47,7.59,7.82,12.13,13.83,7.54,9.98-2.15,12.74-6.43,21.66-13.2,27.52,2.64,29.58,17.72,46.02,2.34,2.55,3.93,9.81,10.27,12.71,3.38,21.68,1.64,43.61,8.39,64.6h5.98c3.1-26.69-.45-56.3,9.37-81.44,1.89-4.93,13.44-5.98,16.76-3.66,5.04,3.53-2.3,26.21,6.93,31.11,11.57,2.65,15.91-41.48,17.42-48.47,4.73-21.89,7.19-50.67,21.46-67.47,7.78,53.99,3.86,108.69,5.94,163,.16,4.26,1.84,8.02,2.06,11.93.46,7.99-2.38,31.98,3.96,36.02l5.12-1,4.91-20.04c1.27,8.11,8.47,34.62,16.97,36.04,3.94.66,4.12-3.22,4.49-5.53,7.33-46.32,1.42-102.45.41-149.43l4.15-55.52,10.01-7.01,9.94-18.44c-2.13,8.73,2.47,19.34,2.16,26.95-.27,6.52-6.03,14.65-6.81,23.33-1.17,12.87,7.41,60.4,14.97,70.35,1.72,2.26,2.13,4.08,5.67,3.29,4.56-3.29.04-38.54,2.43-46.56.52-1.75,10.35-12.9,13.29-18.69,9.42-18.52,12.02-44.86,21.79-60.1,1.26-1.97-.2-3.58,4.47-2.57,1.84,24.75-.63,49.41-4.01,73.94l-3.96-7.98,12.97,73.96,14.61-4.4c10.47-27.17,9.46-61.2,30.32-82.53,7.99-5.09,6.14,13.61,5.56,17.5-4.19,27.96-16.15,55.23-22.57,81.36-1.54,6.28-7.11,26.19,4.07,24.12,1.91-.35-.39-4.97,2.96-4.05,3.4,17.77,14.04,49.23,26.98,61.99,4.03,3.98,3.72,1.12,2.21-2.21-2.03-4.47-5.96-8.25-5.16-13.81,10.95,3.77,27.2,12.88,23.66,26.6-.74,2.87-5.3,4.08-5.55,8.22-.48,8.14,4.83,21.64,5.45,28.59.43,4.91-2.52,8.2-.78,14.7,1.03,3.84,20.81,18.78,25.17,22.83,4.04,3.76,3.91,11.6,11.98,6.99l-3.97,17.98c10.39.4,18.51-19.78,28.03-17.18,20.95,11.11,5.21,43.87,33.91,47.16l-1-9.97c5.84,8.35,4.18,12.58,16.72,9.68l3.28-7.68,1,8c25.46-2.36,14.98-31.49,26.66-43.29,14.64-14.79,23.11,12.84,30.58,13.02l4.68-2.82-5.97-14.87c11.74,4.02,8.94-3.9,13-7.97,2.24-2.25,6.47-2.42,9.1-4.93,2.25-2.15,16.71-17.78,17.04-19.01.98-3.64-1.75-8.42-1.24-12.98,1-9.03,6.05-23.33,4.02-31.72-.39-1.61-3.68-.58-4.13-4.26-2.14-17.47,10.3-20.89,23.18-27.08l-2.99,13.98c3.37,4.51,30.9-53.71,25.98-59.97,15.21,12.52,9.52-15.05,7.01-24.03-6.73-24.08-20.3-56.05-22.61-81.5-.5-5.54.85-9.19,1.6-14.41,2.57-2.31,13.86,10.69,15.47,13.5,7.02,12.28,15.05,67.44,22.57,71.43,3.09,1.64,8.76-.68,7.95,5,7.93,5.46,11.91-47.36,12.43-50.49,1.08-6.53,4.94-13.08,5.51-20.5.16-2.15,1.21-5.49-1.96-4.94l-4,7.97c-.5-25.73-7.5-50.08-2-75.94l8.93,16.02c5.64,24.99,14.39,49.21,30,69.65l1.03,44.24c4.42.46,5.31.47,7.6-3.38,4.19-7.03,13.25-45.13,14.17-53.8,2.02-19.03-4.09-23.5-5.83-37.72-1.19-9.67,1-19.53,2.07-29.03l9.08,17.88c12.89,7.03,12.32,25.53,12.97,39,2.54,52.77-4.21,106.9-.16,160.08.26,3.41,1.95,18.26,5.1,18.91,13.8-5.64,14.12-23.73,18.98-35.96l3.98,21.98,6.1-.89,1.51-2.49,8.38-208.51c4.67-1.01,3.21.6,4.47,2.57,12.96,20.19,14.49,57.82,20.09,81.79,2.22,9.49,6.58,37.55,19.02,29.17l4.24-28.7c9.44-3.5,15.65.76,18.59,9.64,6.81,20.54,4.2,52.54,5.49,74.26,5.01,5.51,8.98-5.71,9.89-9.97,3.42-16.08,2.64-36.96,4.38-53.6,8.84-3.14,8.74-9.04,13.75-14.23,6.7-6.93,20.08-15.64,21.53-26.38.13-.96-4.77-15.42-5.75-17.39-4.05-8.1-13.94-12.07-7.88-21.81,3.14-5.04,13.02-3.64,14.21-14.31,2.06-18.44-9.89-36.66-13.92-53.9l27.36-9.56,3.96-23.06-1.52-22.5c3.26-3.48,23.83,21.61,24.94,24.01,3.31,7.2.16,30.88,1.07,40.91.82,9.03,3.09,21.01,13.96,21.02v-54.97c0-6.94,6.93-15.67,13-18.98l-1,13.97,5.72-.26,17.16-29.8,26.6-8.37c3.35-4.85,1.81-10.75,2.92-16.08.47-2.24,3.55-4.16,3.55-4.44v-50.97c10.33.65,8.14,13.62,10.51,20.47,12.81,37.02,7.05,87.36,9.49,128.44,1.55,26.12,4.3,59.74,8.57,85.4,1.91,11.47,4.98,22.8,7.33,34.17l13.04,7.37c3.1-1.31,4.52-23.76,4.99-28.99,2.31-25.39,3.64-54.79,3.78-80.17.19-34.7-7.34-81.06-3.77-113.71,1.56-14.27,13.09-29.04,14.08-43.89.55-8.31-1.44-24.58-3.36-32.78-2.89-12.29-14.69-23.74-14.17-35.71.05-1.07,8.52-18.34,9.26-19.31,1.89-2.49,12.16-.87,16.72-1.72,11.12-2.07,16.78-10.52,27.45-9.53l27.09,127.84c8.61,14.79,11.32,34.76,16.31,51.66.48,1.63,2,10.04,5.54,8.4,4.19-1.94,7.9-27.01,7.17-30.61-.33-1.63-8.01-3.22-9.71-10.79-1.14-5.06-1.12-18.19-.3-23.42,1.13-7.25,7.89-12.46,8.83-16.86,1.34-6.33-3.4-16.78.36-25.79,2.13-5.11,8.14-1.02,10.16-9.87,5.61-24.53.94-45.79,2.42-69.63.33-5.27,1.21-10.26,2.11-15.41,1.14-2.46,19.07-7.29,23.88-12.58,1.2-1.32,5.49-14.54,5.59-16.19.7-11.06-27.63-21.59-21.48-36.69,21.82,8.46,41.05-24.59,59.67-4.72,11.7,12.48,11.56,35.18,18.46,45.5,1.74,2.6,3.12,3.99,6.46,2.98,9.99-2.53,3.06-28.46,5.63-36.48.99-4.98,6.71-.57,8.64-3.19,8.64-11.73,21.4-37.61,16.66-52.65ZM1123.65,1665.8l25.02-49.9-23.99,61.95c-4.15-.26-1.73-9.74-1.03-12.04ZM73.39,3164.08l-7.97,5.02v-2.96s7.97-5.02,7.97-5.02v2.96ZM103.41,3215.08c1.03-5.26.43-11.99,7.97-9.98,2.03,1.89-5.65,9.54-7.97,9.98ZM141.37,3215.11c4.32-.43,21.74-1.07,21.94,4.98.19,5.63-21.22.49-21.94-4.98ZM221.33,3345.01c.52-12.36-2.17-33.49,13.96-35.96l-13.96,35.96ZM247.31,3305.03v-3.96s5.97-2.02,5.97-2.02v5.99s-5.97,0-5.97,0ZM261.3,3306.03c3.29-2.4,17.23-6.97,19.77-4.77l2.2,9.76c-1.64,1.43-19.48-1.21-21.97-4.99ZM293.27,3422.98c-2.69.28-3.52-4.52-4.32-6.64-4.25-11.2-2.39-32.09.94-43.73.6-2.09.45-6.05,3.38-5.6v55.97ZM511.13,2635.4h11.97v1.96h-11.97v-1.96ZM301.28,3613.87c.86,13.15,8.48,26.55.98,41.02-5.63-50.63-6.11-101.94-5.08-153.03.18-9.11,2.58-20.15,2.86-30.03.3-10.61.52-22.66-2.78-32.84h3.97c.88,5.11,3.07,10,3.82,15.18,7.13,49.25-7.17,107.74-3.77,159.7ZM357.23,3458.97c1.5-1.39,11.37,5.4,11.98,7.97-4.23-.36-12.54-2.1-11.98-7.97ZM357.22,3443.97v-32.98c3.07.48,4.39,6.78,5.5,9.49,4.43,10.81,7.51,22.19,10.5,33.47l-16.01-9.98ZM465.11,3523.93l-1.76-2.21,1.81-6.78c9.3,1.97,18.38,2.62,19.96,13.98l-20.01-5ZM520.08,2667.32c-20.45,40-39.34,79.06-73.97,109.92-14.06,12.54-31.68,19.56-45.4,30-1.07.82-11.22,11.26-11.51,12.04,4.96-2.15,10.78-4.49,15.99-5.98-.28,4.12-19.32,15.21-15.99,5.98-15.16,6.57-28.03,17.6-43.42,23.54-5.47,2.11-44.62,12.97-46.57,11.57-3.74-19.42-9.85-38.18-8.08-58.22,1.28-11.91,22.19-35.01,31.08-44.88,31.23-34.65,65.2-54.8,105.42-75.25,8.73-4.44,30.95-10.62,38.35-16.86,3.26-2.75,2.33-6.29,4.61-7.83,6.99-4.71,59.61-12.74,62.5-9.96-.13,10.1-8.66,17.41-13.02,25.94ZM555.11,3684.85v-18s5.97,0,5.97,0c1.31,1.26-1.06,17.43-5.97,17.99ZM633.02,3762.8c-4.61-2.78-.78-13.36-1.96-17.97,4.6,2.62.79,13.35,1.96,17.97ZM690.65,1663.21l-19.62-49.33,27.02,53.92.92,10.04-8.32-14.63ZM797.94,3786.79l-18.85-9.18-.14-26.78c5.53-6.3,11.6,23.19,12.38,24.66,1.29,2.42,3.96,2.8,4.85,4.01,1.25,1.68,4.6,5.67,1.75,7.3ZM820.89,3864.76c-3.72-1.46-6.17-6.43-5.96-9.99,3.72,1.46,6.17,6.43,5.96,9.99ZM850.89,3874.78c7.38-1.11,13.58,4.84,17.99,9.95-6.58,1.41-13.33-5.73-17.99-9.95ZM952.83,3884.73c3.66-6.64,10.28-10.87,17.99-9.95l-17.99,9.95ZM1040.3,3780.35c-.9.62-15.17,4.83-17.54,3.43,9.5-9.99,7.08-23.97,17.01-32.92,3.62-.18,5.81,25.87.53,29.49ZM1262.64,3684.85l-4.01-17.98,7.97-.02c-.61,5.67,2.65,15.03-3.96,18ZM1527.44,3364.99c7.72,18.64,10.78,41.53.97,59.98-3.48.48-1.88-4.54-1.97-6.96-.67-17.42.68-35.6,1-53.01ZM1298.61,2635.4h11.97v1.96h-11.97v-1.96ZM1341.8,3527.2c-1.32.13-7.49,2.74-7.18-1.27.31-4.06,16.53-13.41,21.94-10.98,1.54,11.23-5.82,11.4-14.75,12.25ZM1412.52,2811.31l19.99,11.95c-7-1.78-16.26-5.57-19.99-11.95ZM1454.49,3464.94l7.97-5.98c.52,5.04-3.18,6.76-7.97,5.98ZM1462.06,3443.53c-2.64,5.47-11.42,4.11-11.6,11.42-4.05.17-1.59-7.83-1.07-10.08,2.37-10.18,7.71-26.52,15.06-33.89-3.06,9.03,1.37,24.74-2.4,32.54ZM1518.42,3652.85l-2.06-21.06c7.08-43.51-.45-88.09-2-131.77-.72-20.22-2.06-42.56,7.08-61.07-1.36,71.55,7.23,142.53-3.02,213.9ZM1522.43,2855.27c-38.25-6-66.91-20.73-98.4-41.93-33.21-22.36-78.63-58.25-97.59-94.91-8.93-17.28-18.01-36.33-27.53-54.39-4.13-7.83-10.32-11.85-12.28-21.69,14.73-.2,51.46-.25,62.77,9.22,3.23,2.71,2.48,5.75,3.75,7.19,1.87,2.13,22.24,8.88,27.51,11.47,46.16,22.72,83.4,41.23,119.77,82.69,5.24,5.97,28.83,34.19,29.47,39.6l-7.47,62.74ZM1538.44,3311.05v-10.01c7.6-1.31,13.15,1.82,19.98,4.03-.68,4.93-19.01,6.96-19.98,5.98ZM1568.64,3304.79l-2.22-5.72c2.09-1.62,7.39,3.33,7.99,5.96l-5.77-.24ZM1598.38,3343.01l-13.95-35.97c16.88,7.2,14.38,20.11,13.95,35.97ZM1658.37,3220.05c-1.59-7.58,18.18-4.47,21.97-4.95-1.56,4.64-20.85,10.3-21.97,4.95ZM1710.33,3205.1c5.87-.74,6.02,6.25,7.98,9.96-3.13,3.09-9.04-8.91-7.98-9.96ZM1753.3,3169.1c-2.42-2.6-5.8-4.18-4.99-7.99l5.72,2.22-.73,5.76ZM1764.26,3189.09h-1.96s-2.01-9.97-2.01-9.97h3.98s0,9.97,0,9.97Z"/>
</svg>