<?xml version="1.0" encoding="UTF-8"?>
<svg id="Camada_1" data-name="Camada 1" xmlns="http://www.w3.org/2000/svg" viewBox="0 0 1200 300">
  <defs>
    <style>
      .cls-1 {
        fill: #9f32ed;
      }

      .cls-2 {
        fill: #f4f4f4;
      }
    </style>
  </defs>
  <path class="cls-1" d="M364.76,174.56c-7.84,12.84-17.25,24.17-28.25,34-11.67,10.17-22,15.25-31,15.25-6.67,0-12.17-1.33-16.5-4l-17.5-10.5v31c0,6,.75,10.58,2.25,13.75l5.75,7.5c-.5,1.83-2.09,3.08-4.75,3.75l-6.75-2.25-10.25-.75c-1.67-.17-3.92.25-6.75,1.25l-6.75,2.5c-3.17,0-4.75-2-4.75-6l3-6.5c1.16-2.34,1.75-4.25,1.75-5.75v-54h-8.75c-3.84,3-6.59,7.5-8.25,13.5-.5,1.84-1.75,2.75-3.75,2.75-3.17,0-4.75-1.58-4.75-4.75,0-8,3.91-14,11.75-18l13.75-7v-38.5c0-8-3.34-12.5-10-13.5-3.17,0-4.75-1.33-4.75-4,0-1.5.66-2.75,2-3.75,5.16-1.66,9.58-3.33,13.25-5,.16-.16,1.04-.58,2.62-1.25,1.58-.66,3.88-1.66,6.88-3,2.33-1,7.41-4.16,15.25-9.5,5.16-3.5,8.66-5.25,10.5-5.25s2.75,1.09,2.75,3.25l-7.25,11.5c-1.67,2.5-2.75,5.25-3.25,8.25v60.75l42.25,19.75,6,.25c9.16.17,16.83-5.25,23-16.25,5.16-9.33,7.75-19,7.75-29v-13.25c0-14.5-6.25-27.66-18.75-39.5-11.17-10.33-21.09-15.5-29.75-15.5h-16.75c-2.67,0-8.84,2.25-18.5,6.75l-29,13.5c-9.5,4.34-17.34,6.5-23.5,6.5-5.84,0-10.92-1.16-15.25-3.5-5.17-2.66-7.75-6.91-7.75-12.75,0-4.5,2.33-7.25,7-8.25l2.75,1.25,3.25,2v10.5l4.25,2.5c1.16.17,2.12.29,2.88.38.75.09,1.29.12,1.62.12,5.16,0,13.16-3.58,24-10.75,11.66-7.66,22.91-14.41,33.75-20.25,13.33-7.33,25.83-11,37.5-11h10c16.5,0,30.83,7.09,43,21.25,11.16,12.67,16.75,26,16.75,40v8.25c0,12.17-4.67,25.92-14,41.25Z"/>
  <g>
    <path class="cls-2" d="M440.76,155.81h-2.5l-.25-3.75.25-3.75v-3.25c0-4.5-2.5-6.75-7.5-6.75-1.84,0-4.09,1.5-6.75,4.5-2.67,2.67-4,5-4,7v58.75c0,1.5,1.16,3.67,3.5,6.5,2.33,2.84,3.5,4.75,3.5,5.75,0,.84-.42,1.67-1.25,2.5l-2.75.5-6-3c-2-1-4.59-1.5-7.75-1.5-3.67,0-6.75.5-9.25,1.5l-7.5,3h-2l-1.75-3,3.75-4.5c2.5-3.66,3.75-6.5,3.75-8.5v-57.5c0-4.66-1.75-8-5.25-10l-11.5-4.5c0-1,3.25-4.16,9.75-9.5,6.66-5.33,10.75-8.25,12.25-8.75l3.5,1.75c6,4.34,10.41,9.67,13.25,16,.83-.33,3.58-3.16,8.25-8.5,4.66-5.66,9.66-8.5,15-8.5l10.5,2c5.16,1,8.5,2.34,10,4l-21.25,31.5Z"/>
    <path class="cls-2" d="M547.5,209.06c-10.84,9.84-20.75,14.75-29.75,14.75-13.67,0-25.5-6-35.5-18-8-9.5-12-17.91-12-25.25v-10.25c0-10,4.75-21.16,14.25-33.5,10.16-13,20.08-19.5,29.75-19.5h8.75c8.66,0,17.75,4.92,27.25,14.75,10.66,10.84,16,23.59,16,38.25s-6.25,27.25-18.75,38.75ZM551.5,178.31l-6.5-11c-12-20.33-25.75-30.5-41.25-30.5-7.84,0-13.59,4.25-17.25,12.75-1,2.34-1.5,5-1.5,8,0,9.84,5.58,20,16.75,30.5,11.33,10.34,21.91,15.5,31.75,15.5,4,0,7.41-1.41,10.25-4.25l7.75-10.5v-10.5Z"/>
    <path class="cls-2" d="M617.5,255.81c-7.34,10.33-16.75,15.5-28.25,15.5h-9.75c-1,0-2.09-.5-3.25-1.5-.34-.34-.5-.75-.5-1.25l-.25-1.5c0-1.67.66-2.5,2-2.5,1,0,2.5.41,4.5,1.25l2.5,1.25c10.5-5.5,15.75-10.92,15.75-16.25v-7c-.5-.67-1-1.67-1.5-3-1-2.34-1.88-4.25-2.62-5.75l-1.62-3.25c-1.5-3.17-2.25-5.84-2.25-8v-73.25c0-5.5-2.67-8.91-8-10.25l-8.5-1.75v-2.25c.5-1.83,5.25-5.41,14.25-10.75l14.25-8.25c6.83,0,10.91,7.17,12.25,21.5.5,5.84.75,13.67.75,23.5v50c0,7,.66,12.91,2,17.75l2.5,8.75v7.25c0,2.33-1.42,5.58-4.25,9.75ZM611.5,98.31l-16.25,11.5h-4.25v-3.25l10.25-23.25c3-6.66,6.91-10,11.75-10,2.66,0,5.21,1.17,7.62,3.5,2.41,2.34,3.62,4.84,3.62,7.5,0,3.34-4.25,8-12.75,14Z"/>
    <path class="cls-2" d="M705.5,149.61l-23.75,14.41-15.5,8.95c-9.67,5.63-14.5,8.7-14.5,9.19,1.66,2.16,3.16,3.89,4.5,5.22,1.33,1.33,2.41,2.32,3.25,2.98,6.66,5.63,14.25,8.45,22.75,8.45,6.33,0,12.16-1.91,17.5-5.75l12.5-12.5c1.16,0,2,.42,2.5,1.25l.75,4c0,7.5-4.42,15.75-13.25,24.73-8.67,8.84-16.84,13.27-24.5,13.27h-10.75c-8,0-16.09-5.08-24.25-15.25-8.34-10.33-12.5-19.5-12.5-27.5v-20.75c0-8.83,4.5-18.16,13.5-28,9.16-10,18.16-15,27-15h8c2.83,0,9.91,3.31,21.25,9.94,11.66,6.46,17.58,10.52,17.75,12.18,0,1.82-4.09,5.22-12.25,10.19ZM670.75,133.06c-2.17-2.66-4.92-4-8.25-4-4.17,0-7.84,1.84-11,5.5l-7.5,13.75v15c.33.17.88,1.42,1.62,3.75.75,2.34,2.04,4.42,3.88,6.25.33-.5,4.75-3.33,13.25-8.5l25.75-15.25c-4.84-2.33-10.75-7.83-17.75-16.5Z"/>
    <path class="cls-2" d="M777.75,138.31c-1.84.67-4.09,1.34-6.75,2-2.67.67-5.92,1.34-9.75,2v40.5c0,13,6.75,19.5,20.25,19.5h2.75c.66,0,1.5-.16,2.5-.5l3.75.75c.66.67,1,1.59,1,2.75-2.5,1.84-4.92,3.59-7.25,5.25-2.34,1.67-4.59,3.17-6.75,4.5-8.5,5.5-13.92,8.42-16.25,8.75-3.67,0-8.92-3.16-15.75-9.5-6.67-6.5-10-11.58-10-15.25v-58.5c-1.34-.16-2.84.34-4.5,1.5l-2.25,1.75h-2.5v-7c1.33-3,2.79-5.71,4.38-8.12,1.58-2.41,3.21-4.54,4.88-6.38,1-1.16,1.5-2.25,1.5-3.25v-18c0-10.16,1.16-16.66,3.5-19.5.33-.33,2.04-1.38,5.12-3.12,3.08-1.75,7.54-4.04,13.38-6.88h2.25v46h15.5c4.16,0,7.16-.66,9-2l5.75-4.25c1.83,1.17,2.91,2.84,3.25,5,0,9.84-5.67,17.17-17,22Z"/>
    <path class="cls-2" d="M878.49,209.06c-10.84,9.84-20.75,14.75-29.75,14.75-13.67,0-25.5-6-35.5-18-8-9.5-12-17.91-12-25.25v-10.25c0-10,4.75-21.16,14.25-33.5,10.16-13,20.08-19.5,29.75-19.5h8.75c8.66,0,17.75,4.92,27.25,14.75,10.66,10.84,16,23.59,16,38.25s-6.25,27.25-18.75,38.75ZM882.49,178.31l-6.5-11c-12-20.33-25.75-30.5-41.25-30.5-7.84,0-13.59,4.25-17.25,12.75-1,2.34-1.5,5-1.5,8,0,9.84,5.58,20,16.75,30.5,11.33,10.34,21.91,15.5,31.75,15.5,4,0,7.41-1.41,10.25-4.25l7.75-10.5v-10.5Z"/>
    <path class="cls-2" d="M980.74,213.31c-10.84,7-22.17,10.5-34,10.5-9.67,0-18.34-2-26-6-9.34-4.83-14-11.66-14-20.5,0-3.66,1.25-6.96,3.75-9.88,2.5-2.91,5.5-4.38,9-4.38.5,0,1.29.12,2.38.38,1.08.25,2.16.62,3.25,1.12,1.08.5,2.04,1,2.88,1.5.83.5,1.25,1,1.25,1.5-.34,1-1,1.84-2,2.5-2.67,1.67-4,4.84-4,9.5s2.25,8.67,6.75,11.5c4.5,2.84,10.25,4.25,17.25,4.25,8,0,14.91-2.75,20.75-8.25,5.83-5.5,8.75-12.25,8.75-20.25,0-4.66-1.54-8.83-4.62-12.5-3.09-3.66-6.79-5.5-11.12-5.5-2.5,0-5,1.29-7.5,3.88-2.5,2.59-3.75,5.12-3.75,7.62l.75,2.75,1.5,1.5v3c-19.84,0-33-8.5-39.5-25.5l-2.75-9.75c.16-1.33.66-2.41,1.5-3.25,0-4.5.79-8.71,2.38-12.62,1.58-3.91,3.79-7.29,6.62-10.12s6.21-5.04,10.12-6.62c3.91-1.58,8.12-2.38,12.62-2.38,5.16,0,10.41,1,15.75,3l16,6.25c.83,0,2-.75,3.5-2.25.83-1.33,2.16-2.08,4-2.25h3.75v2.25l-6.75,12c-2.84,5-6.84,7.5-12,7.5h-7c-1.84,0-6.84-2.25-15-6.75-8.34-4.5-14.09-6.75-17.25-6.75-1.34.5-2.59,1.17-3.75,2-2.67,2.5-4,5.84-4,10,0,5.5,3.41,10.17,10.25,14,5.66,3.17,11.58,4.75,17.75,4.75,2,0,6.16-2.41,12.5-7.25,2.66-2.16,5.5-3.25,8.5-3.25h6c6.16,0,11.58,2.84,16.25,8.5,4.83,5.67,7.25,11.42,7.25,17.25v8.25c0,11.5-6,21.09-18,28.75Z"/>
  </g>
</svg>