<?xml version="1.0" encoding="UTF-8"?>
<svg id="Logo" xmlns="http://www.w3.org/2000/svg" viewBox="0 0 3600 1200">
  <defs>
    <style>
      .cls-1 {
        fill: #5e5e5e;
      }

      .cls-2 {
        fill: #9f32ed;
      }

      .cls-3 {
        fill: #f4f4f4;
      }
    </style>
  </defs>
  <g>
    <path class="cls-1" d="M2532.32,1092.14c-22.53,0-39.58-5.95-51.15-17.84-11.58-11.89-15.79-28.26-12.63-49.1h31.26c-1.89,12.21.52,21.79,7.26,28.73,6.73,6.95,16.63,10.42,29.68,10.42s23.26-3.58,31.89-10.74c8.63-7.15,13.89-16.52,15.79-28.1,1.26-8.84,0-16.63-3.79-23.37-3.79-6.73-9.9-11.37-18.31-13.89l-32.52-9.16c-14.32-4.21-24.94-11.73-31.89-22.58-6.95-10.84-9.27-23.84-6.95-39,3.16-19.58,11.42-34.84,24.79-45.78,13.37-10.94,30.68-16.42,51.94-16.42,13.26,0,24.57,2.63,33.94,7.89,9.36,5.26,16.26,12.53,20.68,21.79,4.42,9.27,5.68,19.89,3.79,31.89h-31.26c1.68-10.1-.37-18.31-6.16-24.63-5.79-6.32-14.16-9.47-25.1-9.47s-20.26,3.16-27.94,9.47c-7.69,6.32-12.27,14.53-13.74,24.63-1.48,8.21-.42,15.21,3.16,21,3.58,5.79,9.26,9.74,17.05,11.84l33.15,9.79c14.94,4.21,25.94,12.16,33,23.84,7.05,11.68,9.31,25.74,6.79,42.15-3.37,21.05-12.31,37.42-26.84,49.1-14.53,11.68-33.15,17.52-55.89,17.52Z"/>
    <path class="cls-1" d="M2738.5,1088.98c-14.95,0-26.16-4.31-33.63-12.95-7.47-8.63-10.05-20.1-7.74-34.42l15.47-97.89h-49.26l4.42-28.42h49.57l7.89-48.94h31.26l-7.89,48.94h70.42l-4.42,28.42h-70.73l-15.47,97.57c-.84,5.68.1,10.32,2.84,13.89,2.73,3.58,6.84,5.37,12.31,5.37h50.84l-4.42,28.42h-51.47Z"/>
    <path class="cls-1" d="M2909.64,1092.14c-20.42,0-35.73-6-45.94-18-10.21-12-13.74-28.31-10.58-48.94l17.37-109.88h31.26l-17.37,109.88c-1.89,12.63-.21,22.37,5.05,29.21,5.26,6.84,13.47,10.26,24.63,10.26s20.89-3.42,28.58-10.26c7.68-6.84,12.47-16.58,14.37-29.21l17.37-109.88h31.26l-17.37,109.88c-3.37,21.26-11.89,37.73-25.58,49.42-13.69,11.68-31.37,17.52-53.05,17.52Z"/>
    <path class="cls-1" d="M3088.04,1092.14c-16.84,0-29.58-5.95-38.21-17.84-8.63-11.89-11.48-27.63-8.53-47.21l7.89-49.89c3.16-20.63,10.63-36.63,22.42-48,11.79-11.37,26.84-17.05,45.15-17.05,12.63,0,22.68,3.27,30.16,9.79,7.47,6.53,11.31,15.47,11.52,26.84l5.68-40.42,8.21-49.89h31.26l-36.63,230.5h-30.95l5.37-33.79c-3.58,11.79-10,20.89-19.26,27.31-9.27,6.42-20.63,9.63-34.1,9.63ZM3103.2,1064.98c11.15,0,20.57-3.47,28.26-10.42,7.68-6.95,12.47-16.74,14.37-29.37l7.26-46.1c1.89-12.63.16-22.42-5.21-29.37-5.37-6.95-13.63-10.42-24.79-10.42s-21.05,3-28.42,9c-7.37,6-12.11,15.74-14.21,29.21l-7.89,49.26c-2.11,13.48-.42,23.21,5.05,29.21,5.47,6,14,9,25.58,9Z"/>
    <path class="cls-1" d="M3219.71,1088.98l4.42-28.42h61.26l18.63-116.83h-53.68l4.74-28.42h83.99l-22.74,145.25h57.15l-4.42,28.42h-149.35ZM3327.07,884.68c-7.37,0-12.79-1.84-16.26-5.53-3.47-3.68-4.79-8.68-3.95-15,1.05-6.52,3.95-11.68,8.68-15.47s10.68-5.68,17.84-5.68,12.84,1.89,16.42,5.68c3.58,3.79,4.84,8.95,3.79,15.47-1.05,6.32-3.95,11.32-8.68,15-4.74,3.69-10.69,5.53-17.84,5.53Z"/>
    <path class="cls-1" d="M3478.31,1092.14c-20.84,0-36.42-6.05-46.73-18.16-10.32-12.1-13.89-28.36-10.74-48.79l7.26-46.42c3.16-21.05,11.63-37.42,25.42-49.1,13.78-11.68,31.63-17.52,53.52-17.52s36.47,6,46.89,18c10.42,12,14.05,28.21,10.89,48.63l-7.58,46.42c-3.37,21.26-11.95,37.73-25.73,49.42-13.79,11.68-31.53,17.52-53.21,17.52ZM3482.73,1064.35c11.79,0,21.47-3.32,29.05-9.95,7.58-6.63,12.31-16.36,14.21-29.21l7.26-46.42c1.89-12.63.21-22.31-5.05-29.05-5.27-6.73-13.79-10.1-25.58-10.1s-21.47,3.37-29.05,10.1c-7.58,6.74-12.31,16.42-14.21,29.05l-7.26,46.42c-1.89,12.84-.21,22.58,5.05,29.21,5.26,6.63,13.79,9.95,25.58,9.95Z"/>
  </g>
  <g>
    <g>
      <path class="cls-3" d="M1015.92,752.82c-3.17,2.53-8.05,5.68-14.68,9.47-6.63,3.79-15.01,8.85-25.1,15.16-.64.64-1.58,1.27-2.84,1.89-1.27.64-2.84,1.58-4.74,2.84-12,0-23.06-6.63-33.15-19.89l-34.1-43.57-51.15,33.15c-32.21,20.84-50.84,31.9-55.89,33.15-29.05,0-59.06-14.83-89.99-44.52-36.63-36-54.94-79.24-54.94-129.78,0-45.47,23.99-94.09,71.99-145.88,51.77-55.56,104.2-83.36,157.25-83.36,7.58,0,23.68,7.58,48.31,22.73,23.99,14.54,40.73,22.42,50.21,23.68,13.88,0,32.21-9.47,54.94-28.42h11.37v11.37l-37.89,52.1c-11.37,16.43-17.05,36.94-17.05,61.57v129.78c0,25.27,11.37,42.95,34.1,53.05,22.1,7.58,33.78,13.26,35.05,17.05l-41.68,28.42ZM927.83,499.9c-3.17,0-6.63.64-10.42,1.89l-7.58,1.89c-14.53,0-33.48-9.47-56.84-28.42-22.11-19.57-37.89-29.36-47.36-29.36-22.73,0-40.11,10.75-52.1,32.21-11.37,18.32-17.05,39.16-17.05,62.52l-2.84,10.42-2.84,13.26c0,26.52,13.88,58.11,41.68,94.73,22.1,27.8,46.73,41.68,73.89,41.68,12.63,0,23.68-2.2,33.15-6.63l18.95-7.58v-115.57l12.32-18,31.26-57.78v8.53c-2.53-2.52-7.27-3.79-14.21-3.79Z"/>
      <path class="cls-3" d="M1331.36,527.37h-9.47l-.95-14.21.95-14.21v-12.31c0-17.05-9.47-25.58-28.42-25.58-6.96,0-15.48,5.68-25.58,17.05-10.11,10.11-15.16,18.95-15.16,26.52v222.61c0,5.68,4.41,13.9,13.26,24.63,8.84,10.75,13.26,18,13.26,21.79,0,3.17-1.58,6.32-4.74,9.47l-10.42,1.89-22.73-11.37c-7.58-3.79-17.38-5.68-29.37-5.68-13.9,0-25.58,1.89-35.05,5.68l-28.42,11.37h-7.58l-6.63-11.37,14.21-17.05c9.47-13.88,14.21-24.63,14.21-32.21v-217.87c0-17.67-6.63-30.31-19.89-37.89l-43.57-17.05c0-3.79,12.31-15.78,36.94-36,25.25-20.2,40.73-31.26,46.42-33.15l13.26,6.63c22.73,16.43,39.46,36.63,50.21,60.63,3.15-1.26,13.57-11.99,31.26-32.21,17.67-21.46,36.62-32.21,56.84-32.21l39.79,7.58c19.57,3.79,32.21,8.85,37.89,15.16l-80.52,119.36Z"/>
      <path class="cls-3" d="M1786.04,767.03l-39.79,18.95c-19.58,0-35.05-14.83-46.42-44.52l-34.1-89.04c-12.64-31.57-25.58-47.36-38.84-47.36-15.79,0-36.32,11.37-61.57,34.1v87.15c0,6.32,3.15,14.53,9.47,24.63,6.94,10.74,10.42,17.38,10.42,19.89v11.37h-25.58l-23.68-10.42-19.89-3.79c-1.89.64-4.12,1.11-6.63,1.42-2.53.33-5.37,1.11-8.53,2.37l-29.37,13.26h-11.37v-19.89l17.05-42.63,6.63-21.79v-390.28c0-4.41-6.96-13.57-20.84-27.47-5.06-4.41-11.69-11.99-19.89-22.73,0-5.05,4.41-9.15,13.26-12.32,12.63-4.41,24.63-9.78,36-16.1,11.37-6.31,22.1-13.57,32.21-21.79.62-.62,6.94-4.41,18.95-11.37,19.57-11.37,31.57-17.05,36-17.05,5.68,1.89,9.15,3.48,10.42,4.74,4.41,1.89,6.63,5.06,6.63,9.47-20.84,12.64-31.26,36-31.26,70.1v213.14h14.21c6.94-6.31,15.78-13.1,26.52-20.37,10.73-7.25,23.36-15.3,37.89-24.16,42.3-26.52,70.72-39.79,85.25-39.79,11.37,0,17.05,4.74,17.05,14.21,0,4.43-1.58,7.27-4.74,8.53-3.17,5.06-4.74,9.16-4.74,12.31l17.05,27.47c4.41,6.32,6.63,16.43,6.63,30.31,0,15.16-9.16,29.05-27.47,41.68-18.32,12.64-27.47,20.22-27.47,22.73,23.36,13.9,41.68,46.74,54.94,98.52,4.41,16.43,11.04,34.43,19.89,53.99,10.73,12.64,25.25,18.95,43.57,18.95v11.37c0,9.47-12.64,20.22-37.89,32.21ZM1672.37,498c-5.06-6.94-7.58-18-7.58-33.15h-9.47l-87.15,57.78v67.26c16.41-5.05,37.56-16.1,63.47-33.15,30.31-20.2,46.09-35.67,47.36-46.42l-6.63-12.31Z"/>
      <path class="cls-3" d="M2143.16,745.24c-41.06,26.52-84,39.79-128.83,39.79-36.63,0-69.48-7.58-98.52-22.74-35.37-18.31-53.05-44.2-53.05-77.68,0-13.88,4.74-26.36,14.21-37.42,9.47-11.04,20.84-16.58,34.1-16.58,1.89,0,4.88.47,9,1.42,4.1.95,8.2,2.37,12.32,4.26,4.1,1.89,7.73,3.79,10.89,5.68,3.15,1.89,4.74,3.79,4.74,5.68-1.27,3.79-3.79,6.96-7.58,9.47-10.11,6.32-15.16,18.32-15.16,36s8.52,32.84,25.58,43.58c17.05,10.74,38.84,16.1,65.36,16.1,30.31,0,56.51-10.42,78.62-31.26,22.1-20.84,33.15-46.42,33.15-76.73,0-17.67-5.85-33.47-17.52-47.36-11.69-13.88-25.74-20.84-42.15-20.84-9.47,0-18.95,4.9-28.42,14.68-9.47,9.8-14.21,19.42-14.21,28.89l2.84,10.42,5.68,5.68v11.37c-75.16,0-125.04-32.21-149.67-96.62l-10.42-36.94c.62-5.05,2.52-9.15,5.68-12.31,0-17.05,2.99-32.99,9-47.84,5.99-14.83,14.36-27.62,25.1-38.36,10.73-10.73,23.52-19.09,38.36-25.1,14.83-5.99,30.79-9,47.84-9,19.57,0,39.46,3.79,59.68,11.37l60.63,23.68c3.15,0,7.58-2.84,13.26-8.53,3.15-5.05,8.2-7.89,15.16-8.53h14.21v8.53l-25.58,45.47c-10.74,18.95-25.9,28.42-45.47,28.42h-26.52c-6.96,0-25.9-8.53-56.84-25.58-31.59-17.05-53.37-25.58-65.36-25.58-5.06,1.89-9.8,4.43-14.21,7.58-10.11,9.47-15.16,22.11-15.16,37.89,0,20.84,12.94,38.53,38.84,53.05,21.46,12,43.89,18,67.26,18,7.58,0,23.36-9.15,47.36-27.47,10.09-8.2,20.84-12.31,32.21-12.31h22.74c23.36,0,43.89,10.75,61.57,32.21,18.31,21.48,27.47,43.26,27.47,65.36v31.26c0,43.58-22.73,79.9-68.2,108.94Z"/>
      <path class="cls-3" d="M2587.43,712.09c-41.06,48.64-81.16,72.94-120.3,72.94h-24.63l-27.47-13.26c-3.79-2.52-13.9-6.94-30.31-13.26v133.57l3.79,11.37,14.21,18v20.84h-15.16l-27.47-9.47c-2.53-1.27-6.96-2.53-13.26-3.79l-15.16-1.89c-1.27,0-8.85,1.57-22.73,4.74-6.32,1.26-11.37,2.37-15.16,3.31-3.79.95-6.63,1.42-8.52,1.42h-16.1v-18.95c5.68-3.17,9.78-6.63,12.31-10.42,10.09-10.11,15.16-27.8,15.16-53.05v-119.36c-4.42,0-8.85,1.27-13.26,3.79l-22.74,10.42-3.79-9.47,2.84-2.84c1.26-15.78,7.58-27.78,18.95-36,11.99-9.47,18-16.73,18-21.79v-176.19c0-17.67-4.42-29.37-13.26-35.05-6.32-4.41-18.64-6.63-36.94-6.63v-18l40.73-29.37c26.52-18.95,42.63-28.42,48.31-28.42,8.84,0,17.67,6.63,26.52,19.89l31.26,52.1,121.25-75.78c27.15,11.37,54.62,32.21,82.41,62.52,32.83,36.63,49.26,74.83,49.26,114.62v23.68c0,39.78-19.58,83.05-58.73,129.78ZM2494.59,467.69c-17.05-9.47-27.47-14.21-31.26-14.21l-6.63,5.68c-12.64,10.75-30.64,21.17-53.99,31.26l-1.89,69.15h-4.74l.95,15.16.95,30.31-1.89,30.31v15.16c37.26,11.37,70.72,32.84,100.41,64.41h36l35.05-38.84c11.37-17.67,17.05-38.84,17.05-63.47,0-63.14-30-111.45-89.99-144.93Z"/>
      <path class="cls-3" d="M2723.82,785.03v-12.31l15.16-30.31c5.68-11.37,8.52-23.36,8.52-36v-215.98c0-20.84-12.95-31.26-38.84-31.26-5.68,0-12.64-5.05-20.84-15.16,9.47-9.47,27.78-21.46,54.94-36l50.21-26.52c13.26,0,24.94,12.64,35.05,37.89l16.1,36.94v262.39c0,12.64,3.15,24.01,9.47,34.1l18,22.74v9.47h-147.78ZM2835.6,310.44c-17.05,24.63-31.26,36.94-42.63,36.94-6.96,0-13.26-12.62-18.95-37.89-5.06-23.99-7.58-40.1-7.58-48.31,0-15.16,4.26-27.62,12.79-37.42,8.52-9.78,19.42-14.68,32.68-14.68s24.94,4.42,35.05,13.26c10.09,8.85,15.16,19.89,15.16,33.15,0,11.37-8.85,29.69-26.52,54.94Z"/>
      <path class="cls-3" d="M3122.62,527.37h-9.47l-.95-14.21.95-14.21v-12.31c0-17.05-9.47-25.58-28.42-25.58-6.96,0-15.48,5.68-25.58,17.05-10.11,10.11-15.16,18.95-15.16,26.52v222.61c0,5.68,4.41,13.9,13.26,24.63,8.84,10.75,13.26,18,13.26,21.79,0,3.17-1.58,6.32-4.74,9.47l-10.42,1.89-22.74-11.37c-7.58-3.79-17.38-5.68-29.36-5.68-13.9,0-25.58,1.89-35.05,5.68l-28.42,11.37h-7.58l-6.63-11.37,14.21-17.05c9.47-13.88,14.21-24.63,14.21-32.21v-217.87c0-17.67-6.63-30.31-19.89-37.89l-43.57-17.05c0-3.79,12.31-15.78,36.94-36,25.25-20.2,40.73-31.26,46.42-33.15l13.26,6.63c22.73,16.43,39.46,36.63,50.21,60.63,3.15-1.26,13.57-11.99,31.26-32.21,17.67-21.46,36.62-32.21,56.84-32.21l39.79,7.58c19.57,3.79,32.21,8.85,37.89,15.16l-80.52,119.36Z"/>
      <path class="cls-3" d="M3519.52,503.88l-89.99,54.62-58.73,33.89c-36.63,21.34-54.94,32.95-54.94,34.83,6.31,8.17,11.99,14.76,17.05,19.77,5.05,5.03,9.15,8.79,12.31,11.29,25.25,21.34,53.99,32.02,86.2,32.02,23.99,0,46.09-7.25,66.31-21.79l47.36-47.36c4.41,0,7.58,1.58,9.47,4.74l2.84,15.16c0,28.42-16.74,59.66-50.21,93.72-32.84,33.51-63.79,50.27-92.83,50.27h-40.73c-30.31,0-60.95-19.26-91.89-57.78-31.59-39.15-47.36-73.89-47.36-104.2v-78.62c0-33.47,17.05-68.83,51.15-106.1,34.72-37.89,68.83-56.84,102.31-56.84h30.31c10.73,0,37.56,12.55,80.52,37.65,44.2,24.48,66.62,39.86,67.26,46.13,0,6.91-15.48,19.77-46.42,38.6ZM3387.85,441.17c-8.21-10.09-18.64-15.16-31.26-15.16-15.79,0-29.69,6.96-41.68,20.84l-28.42,52.1v56.84c1.26.64,3.31,5.37,6.16,14.21,2.84,8.85,7.73,16.74,14.68,23.68,1.26-1.89,18-12.62,50.21-32.21l97.57-57.78c-18.32-8.84-40.73-29.68-67.26-62.52Z"/>
    </g>
    <path class="cls-2" d="M618.36,667.78c31.99-122.28-2.82-261.15-94.58-348.76-26.64-25.44-57.98-45.1-89.76-63.38l-14.15-6.22c-2.03-22-6.46-43.97-5.42-66.13,1.03-24.28-4.26-42.6,3.1-65.07.74-2.25.42-4.71-.86-6.7-1.46-2.28-3.97-3.65-6.67-3.65h-6.06c-5.25,0-9.05,5.02-7.62,10.08l.71,2.49c5.74,20.51,8.33,41.69,9.1,62.85.93,19.7-2.46,39.25-4.66,58.81-34.63-12.96-70.63-23.89-107.47-28-12.24-1.37-29.18-3.1-41.18-3.04-10,.05-27.21,4.06-36.19,3.13-6.26-.65-9.91-8.59-16.58-7.4-51.25,45.33-159.39,95.58-165.7,172.28-5.9,71.64,79.74,99.54,122.35,51.3,13.76-15.58,13.6-42.4-11.86-39.48,6.55,24.92,2.25,41.77-27.22,37.47-55.74-8.12-47.6-99.01-12.12-126.55,37.56-29.14,128.84-12.65,172.29-.48,9.94,2.78,19.58,6.73,29.65,9.04.64,2.39-.62,2.61-1.55,3.95-5.1,7.31-26.45,27.43-34.01,33.87-23.83,20.31-53.75,35.88-79.78,53.19-1.07,5.01,5.4,9.71,7.71,14.24,7.52,14.82,3.8,37.12,5.04,53.37,2.87,37.59,8.72,74.68,17.33,111.31l-21.45-31.41c-10.57-13.18-43.03-43.94-59.9-44.44-7.83-.23-22.63,14.16-29.17,19.79-10.46,9.01-34.27,28.92-41.85,38.67-10.1,12.98-3.43,25.35,12.48,25.16l1.93-3.13c-10.45-22.45,17.46-23.65,32.82-21.82,28.44,3.37,90.2,47.04,109.94,68.47,15.43,16.75,27.22,39.03,22.02,62.37-29.19-5.09-75.79-9.37-101.53,8.19-4.38,2.99-7.31,7.58-11.35,10.75-17.73,13.89-71.99,51.09-80.02,68.38-7.7,16.58,6.49,32.73,23.3,24.84-13.26-25.23,1.58-38.74,26.79-41.06,57.67-5.29,147.01,33.32,204.43,49.7,30.55,8.71,60.34,20.22,89.62,10.54,2.44,12.26,4.49,24.54,5.09,36.8.5,9.19.52,18.31-.55,27.33-17.26-13.22-37.01-15.98-37.01-15.98l-21.24,32.72s-1.76,3.18,8.66,3.43c10.41.26,42.61,26.52,42.61,26.52,0,0,10.98-16.99,18.67-26.99,1.54-1.97,2.21-4.63,1.54-7.33-3.22-13.02-3.51-26.28-2.78-39.72.79-16.24,4.12-32.51,7.54-48.7l13.34-8.91c18.53-12.77,35.44-28.05,53.99-40.73,33.72-23.05,70.59-42.03,105.18-63.76,5.99-3.76,28.32-16.74,31.2-20.91,5.52-8-7.85-9.51-8.13-11.33ZM403.94,610.7c-1.95,33.59-9.29,67.11-12.59,100.57-.96,10.78-1.67,21.56-1.83,32.34-37.19-11.26-73.52-26.07-110.49-37.78.03-2.13,18.88-21.15,22.08-25.29,41.64-53.85,16.66-81.11,2.07-137.76-13.13-50.96-32.79-154.98-1.76-199.79,7.43-10.73,20.06-20.42,33.53-21.57,22.27,9.54,44.72,19.9,65,33.29.66,35.05,1.75,70.09,2.42,105.14,1.81,50.27,4.74,100.56,1.57,150.85ZM523.5,715.06c-11.28,17.69-42.47,38.94-63.68,38.94h-27.63l-1.13-.11c.27-14.19-.56-28.41-1.82-42.62-3.3-33.46-10.64-66.98-12.59-100.57-3.17-50.29-.25-100.58,1.57-150.85.64-30,1.44-59.99,2.08-89.99l10.33,8.39c54.33,43.15,95.68,112.18,106.88,181.23,6.33,39.06,7.58,121.74-14.01,155.58Z"/>
  </g>
</svg>